<?xml version="1.0" standalone="no"?>
<!DOCTYPE svg PUBLIC "-//W3C//DTD SVG 20010904//EN"
 "http://www.w3.org/TR/2001/REC-SVG-20010904/DTD/svg10.dtd">
<svg version="1.0" xmlns="http://www.w3.org/2000/svg"
 width="5000.000000pt" height="5000.000000pt" viewBox="0 0 5000.000000 5000.000000"
 preserveAspectRatio="xMidYMid meet">

<g transform="translate(0.000000,5000.000000) scale(0.100000,-0.100000)"
fill="#000000" stroke="none">
<path d="M22623 44088 c2 -13 19 -77 37 -143 30 -112 32 -134 37 -325 6 -245
-6 -424 -47 -660 -110 -637 -214 -988 -810 -2740 -434 -1277 -621 -1975 -729
-2715 -16 -110 -35 -265 -42 -345 -17 -186 -18 -657 -1 -820 100 -962 505
-1803 1219 -2536 375 -385 858 -743 1352 -1002 356 -187 369 -185 281 32 -29
72 -63 154 -76 181 -39 87 -125 296 -171 415 -59 153 -96 218 -206 363 -325
428 -560 857 -702 1281 -109 328 -158 549 -192 861 -20 189 -22 594 -4 780 75
768 330 1536 799 2405 117 216 170 308 333 575 222 362 319 501 319 456 0 -6
-41 -99 -90 -207 -91 -197 -104 -226 -186 -428 -239 -581 -389 -1134 -455
-1676 -40 -323 -28 -1023 16 -979 3 3 21 60 40 126 172 598 583 1233 1190
1838 572 570 1285 1052 2440 1649 129 67 155 91 155 146 0 45 -43 103 -239
325 -327 369 -662 692 -1101 1061 -674 567 -1633 1219 -2585 1759 -149 85
-198 117 -255 170 -95 87 -246 175 -301 175 -27 0 -31 -3 -26 -22z"/>
<path d="M2420 10134 c-610 -82 -1138 -424 -1501 -971 -293 -443 -398 -1030
-284 -1598 112 -559 490 -1081 1009 -1394 588 -356 1398 -386 2025 -75 471
233 865 659 1054 1140 88 224 130 445 131 690 l1 180 -30 50 c-38 61 -115 110
-189 119 -28 3 -469 5 -981 3 l-930 -3 -53 -29 c-181 -100 -177 -362 7 -458
l53 -28 794 0 794 0 -6 -32 c-115 -639 -617 -1157 -1250 -1289 -270 -56 -622
-35 -871 52 -455 160 -841 547 -997 1002 -111 324 -109 740 6 1066 160 453
559 845 1012 995 173 57 263 70 501 71 248 0 345 -13 522 -70 224 -74 412
-189 601 -369 65 -63 134 -122 153 -131 50 -26 149 -31 204 -10 68 25 140 100
159 165 20 67 20 93 0 159 -13 43 -31 70 -102 144 -337 351 -745 557 -1232
623 -134 17 -461 17 -600 -2z"/>
<path d="M8000 10139 c-91 -16 -245 -73 -332 -125 -101 -61 -258 -208 -328
-309 -62 -91 -110 -193 -142 -300 l-23 -80 -3 -1625 -2 -1624 25 -53 c42 -84
136 -143 230 -143 95 0 194 62 236 147 l24 48 3 703 3 702 472 0 c281 0 498
-4 537 -11 287 -46 535 -262 636 -554 l28 -80 6 -380 5 -380 30 -54 c87 -157
289 -186 415 -59 69 69 70 72 70 478 0 396 -7 476 -56 632 -77 246 -228 465
-443 641 l-33 28 48 41 c211 180 362 404 433 645 71 240 69 559 -6 797 -102
326 -370 639 -681 795 -93 47 -253 98 -362 116 -108 17 -691 20 -790 4z m713
-523 c171 -33 316 -114 439 -245 111 -119 173 -235 205 -384 19 -91 13 -305
-11 -392 -59 -211 -228 -412 -431 -511 -160 -77 -156 -77 -722 -81 l-503 -4 0
609 c0 579 1 613 20 673 51 166 195 295 370 333 92 20 531 21 633 2z"/>
<path d="M12880 10135 c-293 -60 -540 -259 -670 -539 -81 -172 -74 -40 -78
-1541 -3 -1479 -6 -1409 60 -1578 60 -157 212 -342 361 -440 84 -56 193 -104
294 -130 86 -22 99 -22 703 -22 581 0 617 1 650 19 86 45 139 123 147 216 10
110 -43 206 -139 254 l-52 26 -535 0 c-299 0 -566 5 -604 10 -142 21 -267 114
-330 247 l-32 68 -3 518 -3 517 754 0 753 0 52 26 c96 48 149 144 139 254 -8
92 -59 168 -142 213 -40 22 -43 22 -797 25 l-758 3 0 493 c0 467 1 497 20 559
36 115 136 223 250 270 54 22 62 22 650 27 586 5 596 5 635 27 83 44 134 121
142 212 10 110 -40 203 -136 253 l-53 28 -607 -1 c-463 -1 -621 -4 -671 -14z"/>
<path d="M17330 10135 c-293 -60 -540 -259 -670 -539 -81 -172 -74 -40 -78
-1541 -3 -1479 -6 -1409 60 -1578 60 -157 212 -342 361 -440 84 -56 193 -104
294 -130 86 -22 99 -22 703 -22 581 0 617 1 650 19 86 45 139 123 147 216 10
110 -43 206 -139 254 l-52 26 -535 0 c-299 0 -566 5 -604 10 -142 21 -267 114
-330 247 l-32 68 -3 518 -3 517 754 0 753 0 52 26 c96 48 149 144 139 254 -8
92 -59 168 -142 213 -40 22 -43 22 -797 25 l-758 3 0 493 c0 467 1 497 20 559
36 115 136 223 250 270 54 22 62 22 650 27 586 5 596 5 635 27 83 44 134 121
142 212 10 110 -40 203 -136 253 l-53 28 -607 -1 c-463 -1 -621 -4 -671 -14z"/>
<path d="M22240 10145 c-8 -2 -49 -9 -90 -15 -264 -42 -522 -183 -733 -399
-189 -194 -300 -395 -363 -661 -17 -70 -18 -174 -22 -1525 -2 -987 0 -1461 7
-1486 26 -88 120 -164 219 -176 105 -12 217 49 264 145 l23 47 5 1430 c6 1593
0 1460 75 1622 44 95 85 153 169 242 110 113 248 197 391 237 89 25 302 30
398 10 334 -69 603 -334 673 -665 11 -55 14 -306 14 -1446 0 -874 4 -1396 10
-1423 32 -136 175 -224 314 -193 73 16 145 73 177 138 l24 48 0 1425 c0 1592
4 1494 -71 1720 -134 401 -485 746 -888 871 -135 41 -200 50 -391 54 -104 2
-197 2 -205 0z"/>
</g>
</svg>
